<?xml version="1.0" encoding="UTF-8"?>
<svg width="17px" height="10px" viewBox="0 0 17 10" version="1.1" xmlns="http://www.w3.org/2000/svg" xmlns:xlink="http://www.w3.org/1999/xlink">
    <!-- Generator: Sketch 52.6 (67491) - http://www.bohemiancoding.com/sketch -->
    <title>Fill 1</title>
    <desc>Created with Sketch.</desc>
    <g id="Page-1" stroke="none" stroke-width="1" fill="none" fill-rule="evenodd">
        <g id="Camps_Python_Jan30" transform="translate(-436.000000, -381.000000)" fill="#FFFFFF">
            <g id="Group-19">
                <g id="CTA---Blue" transform="translate(233.000000, 359.000000)">
                    <path d="M219.165818,26.4928115 L215.084364,22.3153766 C214.682575,21.9533322 214.080727,21.8976331 213.645818,22.1761287 C213.244364,22.4546244 213.144,23.0116157 213.478545,23.3458105 L216.221818,26.1586167 L204.037091,26.1586167 C203.468029,26.1586167 203,26.520661 203,26.9941037 C203,27.4675463 203.468029,27.8295906 204.037091,27.8295906 L216.255273,27.8295906 L213.511665,30.6423968 C213.17712,30.9765916 213.277484,31.5335829 213.678938,31.8120786 C214.113847,32.1184238 214.782938,32.0348751 215.117484,31.6728308 L219.198938,27.4953958 C219.333091,27.356148 219.4,27.2169002 219.4,27.0219532 C219.366211,26.8270063 219.299302,26.6320593 219.165818,26.4928115 Z" id="Fill-1"></path>
                </g>
            </g>
        </g>
    </g>
</svg>