<?xml version="1.0" encoding="UTF-8"?>
<svg width="12px" height="12px" viewBox="0 0 12 12" version="1.1" xmlns="http://www.w3.org/2000/svg" xmlns:xlink="http://www.w3.org/1999/xlink">
    <!-- Generator: Sketch 52.6 (67491) - http://www.bohemiancoding.com/sketch -->
    <title></title>
    <desc>Created with Sketch.</desc>
    <g id="Page-1" stroke="none" stroke-width="1" fill="none" fill-rule="evenodd">
        <g id="Camps_Python_Jan30" transform="translate(-1058.000000, -31.000000)" fill="#FFFFFF">
            <g id="Group-19">
                <g id="Group-10">
                    <g id="Group-7" transform="translate(1058.000000, 27.000000)">
                        <path d="M11.34375,12.34375 C11.5312509,12.34375 11.6874994,12.4062494 11.8125,12.53125 C11.9375006,12.6562506 12,12.8124991 12,13 L12,15.34375 C12,15.5312509 11.9375006,15.6874994 11.8125,15.8125 C11.6874994,15.9375006 11.5312509,16 11.34375,16 C8.19790094,16 5.52084437,14.8958444 3.3125,12.6875 C1.10415562,10.4791556 0,7.80209906 0,4.65625 C0,4.46874906 0.062499375,4.31250063 0.1875,4.1875 C0.312500625,4.06249937 0.468749063,4 0.65625,4 L3,4 C3.18750094,4 3.34374937,4.06249937 3.46875,4.1875 C3.59375063,4.31250063 3.65625,4.46874906 3.65625,4.65625 C3.65625,5.51042094 3.79166531,6.31249625 4.0625,7.0625 C4.14583375,7.31250125 4.09375094,7.53124906 3.90625,7.71875 L2.4375,9.1875 C3.437505,11.1250097 4.90624031,12.593745 6.84375,13.59375 L8.3125,12.125 C8.45833406,11.9374991 8.67708188,11.8854163 8.96875,11.96875 C9.78125406,12.2187513 10.5729128,12.34375 11.34375,12.34375 Z" id=""></path>
                    </g>
                </g>
            </g>
        </g>
    </g>
</svg>