<?xml version="1.0" encoding="UTF-8"?>
<svg width="9px" height="11px" viewBox="0 0 9 11" version="1.1" xmlns="http://www.w3.org/2000/svg" xmlns:xlink="http://www.w3.org/1999/xlink">
    <!-- Generator: Sketch 52.6 (67491) - http://www.bohemiancoding.com/sketch -->
    <title> copy</title>
    <desc>Created with Sketch.</desc>
    <g id="Page-1" stroke="none" stroke-width="1" fill="none" fill-rule="evenodd">
        <g id="SummerCamp1-WA_2" transform="translate(-317.000000, -5407.000000)" fill="#FFFFFF">
            <g id="Camp-6" transform="translate(0.000000, 4783.000000)">
                <g id="Locations-&amp;-Dates" transform="translate(139.000000, 576.000000)">
                    <g id="L2" transform="translate(166.000000, 34.000000)">
                        <g id="Group">
                            <path d="M15.5351562,18.8398438 C15.8059909,19.0937513 16.1276023,19.2207031 16.5,19.2207031 C16.8723977,19.2207031 17.1897773,19.0895195 17.4521484,18.8271484 C17.7145195,18.5647773 17.8457031,18.2473977 17.8457031,17.875 C17.8457031,17.5026023 17.7145195,17.1852227 17.4521484,16.9228516 C17.1897773,16.6604805 16.8723977,16.5292969 16.5,16.5292969 C16.1276023,16.5292969 15.8102227,16.6604805 15.5478516,16.9228516 C15.2854805,17.1852227 15.1542969,17.5026023 15.1542969,17.875 C15.1542969,18.2473977 15.2812487,18.5690091 15.5351562,18.8398438 Z M13.8085938,15.2089844 C14.5533891,14.464189 15.4505156,14.0917969 16.5,14.0917969 C17.5494844,14.0917969 18.4423791,14.4599573 19.1787109,15.1962891 C19.9150427,15.9326209 20.2832031,16.8255156 20.2832031,17.875 C20.2832031,18.3997422 20.1520195,19.0006477 19.8896484,19.6777344 C19.6272773,20.3548211 19.3098977,20.9895804 18.9375,21.5820312 C18.5651023,22.1744821 18.1969419,22.7288386 17.8330078,23.2451172 C17.4690737,23.7613958 17.1601575,24.1718735 16.90625,24.4765625 L16.5,24.9082031 C16.398437,24.7897129 16.2630217,24.633139 16.09375,24.4384766 C15.9244783,24.2438141 15.6197939,23.8544951 15.1796875,23.2705078 C14.7395811,22.6865205 14.3544938,22.1194689 14.0244141,21.5693359 C13.6943343,21.019203 13.3938816,20.3971389 13.1230469,19.703125 C12.8522122,19.0091111 12.7167969,18.3997422 12.7167969,17.875 C12.7167969,16.8255156 13.0807255,15.9368526 13.8085938,15.2089844 Z" id="-copy"></path>
                        </g>
                    </g>
                </g>
            </g>
        </g>
    </g>
</svg>