<?xml version="1.0" encoding="UTF-8"?>
<svg width="378px" height="390px" viewBox="0 0 378 390" version="1.1" xmlns="http://www.w3.org/2000/svg" xmlns:xlink="http://www.w3.org/1999/xlink">
    <!-- Generator: Sketch 52.6 (67491) - http://www.bohemiancoding.com/sketch -->
    <title>Group 5</title>
    <desc>Created with Sketch.</desc>
    <defs>
        <polygon id="path-1" points="0 0.0344148004 112.316741 0.0344148004 112.316741 34.7043698 0 34.7043698"></polygon>
        <polygon id="path-3" points="0.978205178 0.332 132.969491 0.332 132.969491 145.639844 0.978205178 145.639844"></polygon>
        <polygon id="path-5" points="0 184 301 184 301 1 0 1"></polygon>
    </defs>
    <g id="Page-1" stroke="none" stroke-width="1" fill="none" fill-rule="evenodd">
        <g id="Camps_Python_Jan30" transform="translate(-831.000000, -76.000000)">
            <g id="Group-19">
                <g id="Group-5" transform="translate(835.000000, 80.000000)">
                    <path d="M-2,-2 L372,-2 L372,289.119749 C372,297.865632 366.8195,305.780928 358.804557,309.281093 L193.804557,381.337401 C188.19083,383.788943 181.80917,383.788943 176.195443,381.337401 L11.1954426,309.281093 C3.18049961,305.780928 -2,297.865632 -2,289.119749 L-2,-2 Z" id="Rectangle" stroke="#DDDDDD" stroke-width="4" fill="#FF6B00" fill-rule="nonzero"></path>
                    <g id="Group-76" transform="translate(34.000000, 100.000000)">
                        <g id="Group-20" transform="translate(0.000000, 42.000000)">
                            <g id="Group-3" transform="translate(0.000000, 35.265306)">
                                <mask id="mask-2" fill="white">
                                    <use xlink:href="#path-1"></use>
                                </mask>
                                <g id="Clip-2"></g>
                                <path d="M112.028806,0.119967347 C112.175408,0.753273469 112.376252,1.37923265 112.300019,2.04486531 C98.5942039,2.04486531 84.8898544,2.05074286 71.1840388,2.02429388 C70.2487184,2.02282449 69.5802136,2.29025306 68.9043786,2.95000816 C63.4405243,8.2971102 57.9297573,13.5971918 52.4600388,18.9398857 C51.9029515,19.4835592 51.3194757,19.5761306 50.6143204,19.5761306 C41.827,19.5643755 33.0367476,19.6848653 24.2523592,19.4923755 C21.8466214,19.4394776 20.2120097,20.3034776 18.6624272,21.8433959 C16.5938738,23.9005388 14.5355825,25.966498 12.4303786,27.9854367 C12.0330874,28.3674776 12.1093204,28.6334367 12.2617864,29.0492735 C12.5740485,29.9015184 12.9053689,30.7581714 13.0842233,31.6427429 C13.513767,33.7630694 12.5843107,34.7460898 10.3559612,34.5389061 C10.6916796,33.1341714 11.0068738,31.7220898 10.3178447,30.3364571 C9.34587379,28.3895184 7.08087379,27.4799673 5.12520388,28.2528653 C2.93203883,29.1198041 1.82812621,31.2518857 2.38814563,33.4089469 C2.48197087,33.7733551 3.11235922,34.4448653 2.23274757,34.580049 C1.55837864,34.6829061 0.634786408,35.0061714 0.285873786,33.9041306 C-0.303466019,32.0365388 0.0454466019,30.3129469 1.07312621,28.7010286 C2.72826214,26.103151 6.45341748,24.5485388 9.39425243,26.3353143 C10.1873689,26.8172735 10.6814175,26.5718857 11.2780874,25.9826612 C13.963835,23.3260082 16.7111553,20.7325388 19.3925049,18.0714776 C19.9759806,17.4910694 20.5873107,17.364702 21.3481748,17.3661714 C30.6368738,17.3823347 39.9255728,17.3573551 49.2142718,17.3999673 C50.3108544,17.4043755 51.0599903,17.0517224 51.8340485,16.2964571 C55.8377476,12.3878857 59.8971553,8.5380898 63.947767,4.67800816 C64.405165,4.2416 65.0384854,3.95066122 65.3947282,3.45253878 C67.4163689,0.622497959 70.0918544,-0.018155102 73.5106117,0.0376816327 C86.3470777,0.247804082 99.1894078,0.119967347 112.028806,0.119967347" id="Fill-1" fill="#FEFEFE" mask="url(#mask-2)"></path>
                            </g>
                            <path d="M113.441755,45.7972082 C113.773076,46.4878204 113.718833,47.2342694 113.752551,47.9674939 C99.6347845,47.9733714 85.5170175,47.9910041 71.3992505,47.9660245 C70.3158621,47.9645551 69.5418039,48.2584327 68.7648136,49.0342694 C64.6731534,53.1206367 60.5301825,57.1585143 56.3798816,61.1846367 C55.7406971,61.8047184 55.4386971,62.4394939 55.4797456,63.341698 C55.5486485,64.8448816 55.4621534,66.3554122 55.510532,67.8600653 C55.5442505,68.8489633 54.9563767,69.5689633 54.223367,69.7394122 C53.4815612,69.9128 52.4040369,70.534351 51.7956388,69.3059429 C51.6153184,68.9444735 51.2268233,69.0855347 50.9292214,69.0855347 C45.1912214,69.0767184 39.4532214,69.1149224 33.7152214,69.0443918 C32.7872311,69.0341061 32.480833,70.0685551 31.5352505,69.9274939 C30.7157456,69.8040653 29.8581243,70.1346776 30.4885126,68.6652898 C31.1555515,67.1121469 30.2231631,64.9991673 28.4859301,63.8354122 C26.8821049,62.7612898 25.2606874,63.2770449 23.7492214,64.1821878 C22.4899107,64.9374531 21.8448621,66.8314939 22.2186971,68.5624327 C22.3051922,68.9591673 22.441532,69.3441469 22.5558816,69.7394122 C20.3935029,70.1185143 19.9903476,69.7790857 19.9742214,67.6381878 C19.9522311,64.5892082 22.3946194,61.4197388 24.9806777,61.1376163 C29.3772699,60.6600653 32.0117068,62.7333714 32.7769689,66.0336163 C32.9455612,66.7609633 33.2270369,66.8946776 33.8530272,66.8932082 C40.0000466,66.8829224 46.148532,66.8785143 52.2970175,66.8976163 C53.0681437,66.9005551 53.3979981,66.6243102 53.3129689,65.8602286 C53.3085709,65.8161469 53.321765,65.7676571 53.3115029,65.7250449 C52.1533476,61.0729633 55.3844544,58.6411265 58.2681146,56.1211265 C59.6095223,54.9485551 60.8204544,53.659902 62.1105515,52.443249 C64.2289495,50.4448816 66.3385515,48.437698 68.4056388,46.387902 C68.9671243,45.8295347 69.5755223,45.7913306 70.2689495,45.7913306 C84.6593961,45.7972082 99.0513087,45.7972082 113.441755,45.7972082" id="Fill-4" fill="#FEFEFE"></path>
                            <path d="M122.429041,57.6262204 C123.931711,58.2345469 125.280449,59.1161796 126.626254,60.0022204 C117.66008,60.0139755 108.693905,60.0301388 99.7277301,60.0360163 C90.3056233,60.0418939 80.8849825,60.0507102 71.4628757,60.0169143 C70.4806427,60.0139755 69.6831282,60.2725878 68.989701,60.910302 C67.6189728,62.1710367 66.3024874,63.4949551 64.8877786,64.7042612 C63.7472155,65.6784653 63.2604971,66.8098939 63.3997689,68.3072 C63.4613417,68.9772408 63.7867981,69.9352816 62.4336621,69.917649 C61.1714194,69.9000163 61.6038951,69.0213224 61.5042058,68.3777306 C61.139167,66.048751 61.7607592,64.2355265 63.7692058,62.7632 C65.4785845,61.5098122 66.9358078,59.9037714 68.4487398,58.3961796 C69.0175553,57.8304653 69.6450117,57.8422204 70.3267107,57.8436898 C87.1683417,57.8451592 104.008507,57.8466286 120.848672,57.8363429 C121.376439,57.8363429 121.94672,58.0200163 122.429041,57.6262204" id="Fill-6" fill="#FEFEFE"></path>
                            <path d="M240.752787,69.8986939 C241.699836,68.7378776 242.570651,68.2265306 243.840224,68.2353469 C250.532603,68.2794286 257.224982,68.2412245 263.91736,68.273551 C264.798438,68.2779592 265.219185,68.0898776 265.551972,67.1626939 C266.541535,64.392898 269.296185,62.6031837 271.970205,62.7795102 C274.868525,62.972 277.425263,65.2025306 278.123088,68.1501224 C278.454409,69.5489796 278.106962,69.9736327 276.828593,69.9148571 C276.12637,69.8825306 276.095583,69.5004898 275.976836,68.9626939 C275.632321,67.4036735 274.993137,66.0635918 273.345331,65.3994286 C270.858962,64.3973061 268.135098,65.7006531 267.557486,68.3587755 C267.303865,69.5254694 266.871389,69.9471837 265.598884,69.9354286 C257.814321,69.8634286 250.029758,69.8986939 242.243729,69.8986939 L240.752787,69.8986939 Z" id="Fill-8" fill="#FEFEFE"></path>
                            <path d="M274.762679,34.2917551 C272.603232,34.2755918 270.583057,32.264 270.552271,30.0981224 C270.521484,27.826449 272.488883,25.8133878 274.748018,25.803102 C277.25931,25.7913469 279.025863,27.5516735 279.024397,30.0613878 C279.021465,32.3345306 277.033543,34.3079184 274.762679,34.2917551 M259.542465,36.2122449 C261.745892,36.243102 263.6913,38.1988571 263.717688,40.4102857 C263.744077,42.6011429 261.644737,44.7155918 259.45597,44.6994286 C257.179242,44.6832653 255.238232,42.7054694 255.247028,40.4146939 C255.260222,37.8315102 256.953475,36.1740408 259.542465,36.2122449 M278.861669,24.5644082 C275.327096,21.8783673 270.336766,23.5622857 268.804776,27.7853061 C268.474921,28.6933878 268.082028,28.834449 267.266921,28.8315102 C261.256242,28.8050612 255.244096,28.8212245 249.233417,28.8124082 C248.535591,28.8109388 247.934523,28.8667755 247.374504,29.4222041 C245.242912,31.5366531 243.057077,33.5952653 240.8903,35.6729796 C240.101582,36.4282449 239.349514,37.205551 238.471368,37.8741224 C236.869009,39.0951837 235.703523,40.5293061 236.078824,42.8259592 C236.306057,44.2042449 236.068562,45.6515918 236.138931,47.0636735 C236.185844,48.0084898 235.888242,48.6902857 235.202145,49.3412245 C231.072368,53.2512653 226.957251,57.176 222.889048,61.1492245 C222.113523,61.9059592 221.365853,62.2586122 220.269271,62.2542041 C210.979106,62.2115918 201.688941,62.2306939 192.398776,62.2306939 C182.972271,62.2306939 173.545766,62.2365714 164.117795,62.2189388 C163.317349,62.2174694 162.85262,62.3217959 162.857018,63.3121633 C162.85995,64.2672653 163.257242,64.4347755 164.091407,64.4333061 C183.262543,64.4171429 202.436611,64.4200816 221.607747,64.4259592 C222.169232,64.4259592 222.664747,64.376 223.098688,63.9293061 C224.271504,62.7244082 225.539611,61.6164898 226.765203,60.4674286 C230.153174,57.2920816 233.456116,54.0241633 236.750261,50.7518367 C237.389446,50.1155918 238.034494,49.8702041 238.918504,49.8863673 C241.467912,49.9348571 244.03931,49.6953469 246.563795,49.9554286 C249.94297,50.3022041 252.605261,49.3588571 254.597582,46.5861224 C255.179591,45.773551 255.82464,45.7191837 256.698387,46.2290612 C258.231844,47.1209796 259.980805,47.2429388 261.580232,46.6772245 C266.016407,45.1079184 267.325562,40.616 264.830397,36.5781224 C263.522708,34.4651429 259.876717,33.1162449 256.990125,34.3799184 C254.245737,35.5804082 252.298863,38.8777143 253.25764,41.6195918 C253.956931,43.6238367 253.468747,44.837551 251.945552,45.9777959 C251.511611,46.3010612 251.153902,46.7315918 250.781533,47.1327347 C250.420892,47.5206531 250.019203,47.724898 249.466514,47.7219592 C246.096135,47.7028571 242.725756,47.698449 239.356844,47.7234286 C238.619436,47.7293061 238.274921,47.5221224 238.295446,46.7198367 C238.336494,45.0785306 238.336494,43.4328163 238.29398,41.7915102 C238.276387,41.1126531 238.590116,40.6733061 239.046048,40.2677551 C242.171601,37.4862041 245.231183,34.6341224 248.170552,31.6542041 C248.619154,31.2001633 249.088281,30.9959184 249.734795,30.9973878 C255.518242,31.0179592 261.301688,31.0164898 267.085135,31.0032653 C268.011659,31.0003265 268.546756,31.3309388 268.941116,32.2419592 C270.798562,36.538449 275.220077,37.7521633 278.92031,35.0117551 C282.622009,32.2684082 282.302417,27.1799184 278.861669,24.5644082" id="Fill-10" fill="#FEFEFE"></path>
                            <path d="M294.802284,30.185698 C292.312983,30.1739429 290.750207,28.4518204 290.770731,25.7422694 C290.788323,23.3163102 292.543149,21.7176163 295.09109,21.6808816 C297.441119,21.6456163 299.128508,23.9084735 299.209139,25.9700245 C299.300032,28.3122286 297.230013,30.1974531 294.802284,30.185698 M301.261566,24.1332898 C300.374624,20.2805551 295.569013,18.0206367 291.961139,20.170351 C291.034615,20.7228408 290.514178,20.6317388 289.839809,19.8323918 C288.666993,18.4452898 287.371032,17.1639837 286.149838,15.8165551 C285.686576,15.3052082 285.169071,15.1068408 284.472712,15.1083102 C272.543712,15.1244735 260.614712,15.1215347 248.685712,15.1185959 C248.175537,15.1171265 247.721071,15.1568 247.304721,15.5447184 C243.910886,18.6965551 240.506789,21.8410449 237.086566,24.9649633 C234.472653,27.3527184 231.839683,29.719902 229.190585,32.0679837 C228.495692,32.6821878 228.148246,33.3331265 228.170236,34.3058612 C228.234741,37.1799837 228.174634,40.0555755 228.206886,42.9311673 C228.214217,43.6658612 228.042692,44.2359837 227.485605,44.7458612 C225.843663,46.2505143 224.244236,47.8021878 222.614022,49.3200653 C221.922061,49.9651265 221.111352,50.2002286 220.133517,50.1987592 C205.883809,50.1693714 191.632634,50.1781878 177.381459,50.1781878 C177.038411,50.9114122 176.696828,51.6446367 176.355246,52.3793306 C191.242673,52.3763918 206.131566,52.3587592 221.018993,52.3969633 C222.17275,52.399902 222.958537,52.0428408 223.757517,51.2434939 C225.620828,49.3788408 227.551576,47.5773714 229.536566,45.8464327 C230.115644,45.3394939 230.398585,44.8883918 230.391255,44.1345959 C230.364867,41.3515755 230.430838,38.5670857 230.357537,35.7840653 C230.328217,34.6467592 230.61409,33.8106776 231.47611,33.0304327 C236.731789,28.2813714 241.952284,23.4926367 247.169848,18.7009633 C248.289886,17.6723918 249.50375,17.2594939 251.076789,17.2727184 C260.227683,17.3550041 269.380042,17.3094531 278.530935,17.3153306 C280.441158,17.3168 282.525838,16.8818612 284.213226,17.5078204 C286.007634,18.1719837 287.104217,20.1953306 288.58343,21.5412898 C289.185964,22.087902 289.347226,22.527249 289.026168,23.3985959 C287.872411,26.513698 288.839983,30.3061878 292.35843,31.697698 C294.819877,32.6704327 297.118595,32.5514122 299.132906,30.9189224 C301.2601,29.1923918 301.869964,26.7781878 301.261566,24.1332898" id="Fill-12" fill="#FEFEFE"></path>
                            <path d="M32.8658097,46.6209469 C30.3589165,46.6150694 28.7052466,44.9458449 28.7169748,42.4346612 C28.7287029,39.970498 30.4996544,38.1205388 32.8379553,38.1278857 C35.3111301,38.1381714 37.2198874,40.0895184 37.189101,42.5786612 C37.1597806,44.9928653 35.4108194,46.6268245 32.8658097,46.6209469 M42.321635,20.6010286 C39.5743146,20.6010286 37.9939456,18.9626612 38.0086058,16.131151 C38.018868,13.8771102 39.8132757,12.1138449 42.095868,12.1094367 C44.5353243,12.1050286 46.4836641,14.0710694 46.4778,16.5308245 C46.4719359,19.1727837 45.0117806,20.6039673 42.321635,20.6010286 M110.451955,24.0922939 C110.563373,25.2237224 109.87581,25.2678041 109.002062,25.2678041 C95.3416932,25.248702 81.6798583,25.2472327 68.0194893,25.2707429 C67.1735961,25.2722122 66.5490718,25.0488653 65.9875864,24.4170286 C63.4880233,21.5958041 60.9195573,18.8348245 58.4742369,15.9665796 C57.9230136,15.320049 57.4304311,15.0996408 56.6475767,15.1113959 C54.2799553,15.1451918 51.912334,15.1099265 49.5447126,15.1319673 C48.9011301,15.1378449 48.3968194,15.0643755 48.1622563,14.3414367 C47.1125864,11.1234776 44.8475864,9.87449796 41.5197223,9.86274286 C38.8735573,9.85539592 36.2479165,12.1549878 35.5970039,15.1789878 C35.0516447,17.7078041 37.0219748,21.2490286 39.3221592,22.2026612 C43.2686835,23.8410286 46.5481689,21.9396408 48.0112563,18.5174367 C48.4085476,17.5887837 48.9084602,17.2816816 49.8467126,17.3022531 C51.7129553,17.3463347 53.5835961,17.3654367 55.4469068,17.2949061 C56.4056835,17.2581714 57.0873825,17.5696816 57.7016447,18.2764571 C59.7848583,20.674498 61.8680718,23.0769469 64.0245864,25.4073959 C64.6285864,26.0598041 64.669635,26.3889469 64.0201883,27.0163755 C61.8885961,29.0735184 59.7936544,31.1703347 57.7529553,33.3185796 C57.2589068,33.8402122 56.8073728,34.0356408 56.1212757,34.0312327 C51.7041592,34.0062531 47.2826447,34.1252735 42.8713922,33.9709878 C40.8321592,33.9004571 39.2371301,34.3559673 38.0511204,36.0310694 C37.3518291,37.018498 36.6144214,37.0552327 35.5090427,36.507151 C32.4582563,34.9936816 28.6671301,36.4278041 27.0545087,39.5576 C25.562101,42.456702 26.8917806,46.4152327 29.7417223,48.1256 C31.6651398,49.2805388 35.5896738,48.8514776 36.9574699,47.5657633 C39.2517903,45.4101714 40.0038583,42.6638857 38.8940816,39.9131918 C38.7460136,39.5443755 38.4645379,39.216702 38.6683146,38.7567837 C39.150635,37.6709061 41.3555282,36.2118041 42.5649942,36.2118041 C47.3456835,36.2103347 52.1278388,36.2132735 56.9085282,36.2088653 C57.4450913,36.2073959 58.0080427,36.3161306 58.4478485,35.8503347 C60.1968097,33.9959673 62.1583437,32.3502531 63.7563049,30.3489469 C65.2384505,28.4901714 66.8129553,27.3234776 69.5456155,27.3602122 C83.3408583,27.5468245 97.140499,27.4483755 110.937208,27.4498449 C110.852179,26.3198857 110.787674,25.1855184 110.451955,24.0922939" id="Fill-14" fill="#FEFEFE"></path>
                            <path d="M260.713082,11.0134204 C258.231111,11.011951 256.05114,8.94305306 256.07313,6.60672653 C256.093654,4.24835918 257.937907,2.52182857 260.436004,2.52182857 C262.841742,2.52329796 264.829664,4.46435918 264.812072,6.79921633 C264.79448,9.12966531 262.960489,11.0148898 260.713082,11.0134204 M261.946004,0.354481633 C258.437819,-0.227395918 255.477926,1.35366531 254.4048,4.46729796 C254.120392,5.29309388 253.721635,5.57962449 252.844955,5.55758367 C250.297014,5.49586939 247.74614,5.54729796 245.195266,5.52819592 C244.57514,5.52378776 244.069363,5.63546122 243.598771,6.10419592 C241.662159,8.02762449 239.703557,9.92754286 237.715635,11.8010122 C233.144586,16.1121959 228.706946,20.5673796 224.245849,24.9946449 C223.643315,25.5912163 223.034917,25.8204408 222.199285,25.8189714 C208.902489,25.7969306 195.602761,25.8042776 182.305965,25.7969306 C181.826577,25.7969306 181.288548,25.9732571 180.901518,25.4986449 C180.743188,26.5110531 180.586324,27.5234612 180.42946,28.5358694 C180.832616,27.8379102 181.512849,27.9966041 182.131509,27.9966041 C195.157091,27.9936653 208.181208,27.9789714 221.20679,28.0127673 C222.979208,28.0171755 224.327946,27.8202776 225.786635,26.3523592 C228.14546,23.9778286 230.536538,21.595951 233.049295,19.3536653 C236.580936,16.2062367 239.87215,12.7884408 243.255722,9.47497143 C244.459324,8.29652245 245.740625,7.50599184 247.565819,7.69260408 C249.23415,7.86158367 250.933266,7.76460408 252.617722,7.71317551 C253.516392,7.68672653 254.016305,7.83072653 254.36815,8.85635918 C255.535101,12.2491755 258.808722,13.433502 261.097179,13.0764408 C264.820868,12.4945633 267.087334,9.80852245 266.997907,6.53472653 C266.917276,3.59301224 264.634683,0.799706122 261.946004,0.354481633" id="Fill-16" fill="#FEFEFE"></path>
                            <path d="M295.006354,46.8949878 C292.392442,46.8949878 290.771024,45.2742531 290.769558,42.663151 C290.769558,40.143151 292.458413,38.3945796 294.889073,38.4019265 C297.277218,38.4107429 299.279801,40.3900082 299.241684,42.708702 C299.209432,44.6115592 297.479529,47.2388245 295.006354,46.8949878 M300.415966,39.116049 C299.341374,37.1926204 296.520752,35.6953143 294.449267,35.9656816 C290.359073,36.4976 286.943248,40.8807837 289.020597,45.2213551 C289.397364,46.0089469 289.230238,46.4336 288.664354,46.9699265 C286.155995,49.3488653 283.685752,51.7674776 281.189121,54.156702 C280.277257,55.0295184 279.251044,55.4247837 277.903772,55.4189061 C265.70649,55.3571918 253.510675,55.3968653 241.313393,55.3601306 C240.216811,55.3557224 239.461811,55.6995592 238.695083,56.4636408 C236.795121,58.3562122 234.966995,60.3178449 232.942422,62.0928653 C230.21416,64.4850286 227.861199,67.2798041 224.828005,69.7454367 C226.993316,70.167151 228.397762,69.7233959 229.750898,68.2848653 C232.520209,65.3358041 235.541675,62.6277224 238.418005,59.7785796 C239.99251,58.2180898 241.676966,57.4775184 244.037257,57.5069061 C255.868034,57.6538449 267.701743,57.5656816 279.533985,57.5906612 C280.425325,57.5936 281.05718,57.3335184 281.6905,56.7046204 C284.434888,53.9818449 287.246714,51.3251918 289.996966,48.6082939 C290.612694,47.9999673 291.17418,47.8412735 291.923316,48.2850286 C294.54016,49.8337633 297.944257,49.2416 300.049461,46.5129469 C301.710461,44.3588245 301.899578,41.7668245 300.415966,39.116049" id="Fill-18" fill="#FEFEFE"></path>
                        </g>
                        <g id="Group-23" transform="translate(84.000000, 0.000000)">
                            <mask id="mask-4" fill="white">
                                <use xlink:href="#path-3"></use>
                            </mask>
                            <g id="Clip-22"></g>
                            <path d="M5.15820769,64.637408 C4.05036154,57.534888 2.59905385,47.430928 1.2179,34.899768 C1.13166923,34.546048 0.986976923,33.860808 0.986976923,33.002408 C0.9899,31.427688 0.469592308,26.148528 7.00705385,23.474168 C25.0205154,16.102288 43.0529769,8.780728 61.1000538,1.494688 C65.1134385,-0.124432 69.1735923,-0.025272 73.2176692,1.619008 C90.9505154,8.834008 108.702362,15.998688 126.430823,23.224048 C129.001669,24.273368 130.792054,25.652728 131.837054,27.482008 C133.319054,30.076448 132.977054,32.889928 132.822131,34.048768 C131.002515,47.583368 127.294592,75.101008 122.3239,110.774928 C122.078362,111.609648 121.566823,113.086688 120.527669,114.665848 C118.402592,117.892248 115.489746,119.394448 114.437438,119.955368 C100.5879,127.355368 87.2981308,135.783968 73.7292077,143.699008 C69.2846692,146.291968 64.8342846,146.280128 60.3795154,143.703448 C51.4115154,138.514568 42.4405923,133.334568 33.4711308,128.150128 C29.9546692,126.122528 25.6314385,123.585808 20.6826692,120.579928 C17.0127462,118.352528 15.3919,117.204048 13.8441308,114.994408 C12.2612846,112.731488 11.2937462,110.024568 10.9356692,106.863288 C10.7544385,105.584568 10.5732077,104.305848 10.3919769,103.027128 C10.1362077,100.533328 9.8629,98.023248 9.57059231,95.498368 C8.77405385,88.623768 5.95913077,69.777448 5.15820769,64.637408" id="Fill-21" fill="#BE2632" mask="url(#mask-4)"></path>
                        </g>
                        <path d="M150.549015,7.00434998 C153.665491,6.88292517 157.976321,9.33215243 161.575527,10.7729615 C176.84831,16.893068 192.058001,23.1745807 207.308775,29.3524381 C209.456854,30.2231429 210.290261,31.3766786 209.911707,33.9177148 C208.437103,43.8256831 207.267691,53.779556 205.909002,63.7067746 C204.878981,71.2469591 203.7037,78.7693741 202.648735,86.3080779 C201.627517,93.6098551 200.698737,100.92496 199.684855,108.228218 C199.379664,110.433114 198.191177,112.002752 196.225039,113.139999 C185.150107,119.545898 174.114792,126.025837 163.063336,132.47616 C159.816274,134.371571 156.554539,136.238848 153.317748,138.150548 C151.413236,139.275949 149.560077,139.283353 147.648228,138.17128 C141.15117,134.38786 134.629168,130.647384 128.139445,126.853599 C120.544871,122.414189 113.045669,117.801527 105.35719,113.536851 C101.662611,111.487437 101.266449,108.124562 100.773447,104.621012 C99.8461344,98.0359375 98.9085507,91.4523436 98.0208542,84.8613457 C97.1448957,78.3473489 96.3467024,71.8215057 95.4692767,65.3089897 C94.4744696,57.9213266 93.4268409,50.5410674 92.4070903,43.1593275 C91.9478357,39.8245876 91.5032538,36.4868861 91.042532,33.1521462 C90.7916293,31.3352164 91.6661205,30.2705282 93.2610398,29.6249036 C111.248267,22.3364534 129.232559,15.0361569 147.225655,7.75955306 C148.258611,7.34197018 149.854998,6.97917654 150.549015,7.00434998" id="Fill-24" fill="#F26C21"></path>
                        <path d="M150.500245,14.0226902 C153.861821,13.7637081 156.37567,15.7840634 159.05085,16.903867 C172.221423,22.4190103 185.327462,28.0871884 198.454035,33.7038645 C201.699745,35.0929507 202.32014,36.409934 201.869877,39.7634589 C200.957617,46.5484978 200.238955,53.3600234 199.353095,60.1494767 C198.478968,66.8565266 197.465508,73.5444472 196.572315,80.2485541 C195.552989,87.9032433 194.485263,95.5549896 193.672735,103.231751 C193.347138,106.296864 192.134213,108.561487 189.576365,110.127152 C179.232039,116.456029 168.87598,122.762833 158.525787,129.079939 C157.095798,129.954003 155.595408,130.735364 154.260751,131.737449 C151.873035,133.529723 149.643718,133.289871 147.195869,131.796309 C135.277821,124.524207 123.359773,117.24769 111.340526,110.147753 C108.128549,108.251002 107.713485,105.244749 107.301355,102.195822 C106.214562,94.1497169 105.344835,86.0741817 104.303509,78.0207187 C103.435249,71.3136688 102.424723,64.6242768 101.519796,57.9216414 C100.667669,51.6089507 99.8580746,45.2918456 99.0572804,38.9747405 C98.7463493,36.5232387 99.6952758,34.8427975 102.050726,33.8583709 C113.898374,28.9097512 125.722556,23.9037433 137.554071,18.9168649 C140.714715,17.5836952 143.898826,16.3020277 147.018403,14.8776257 C148.237195,14.3214026 149.272654,13.9917889 150.500245,14.0226902" id="Fill-26" fill="#D82D35"></path>
                        <path d="M150.500253,16.0219478 C153.732236,15.7715062 156.147409,17.7246544 158.719773,18.8079255 C171.377394,24.1353669 183.974783,29.6139624 196.59127,35.0421733 C199.711603,36.3832955 200.30805,37.6562502 199.874671,40.8971722 C198.999097,47.4545931 198.307159,54.0372064 197.45656,60.5975911 C196.616244,67.079435 195.642242,73.5420142 194.784297,80.0223762 C193.80295,87.4185542 192.77753,94.8117685 191.995977,102.231657 C191.683063,105.193981 190.51808,107.38127 188.058834,108.894293 C178.117548,115.011589 168.161571,121.106656 158.21294,127.212096 C156.839347,128.055299 155.396707,128.81107 154.114197,129.778753 C151.819489,131.512579 149.676097,131.27992 147.324095,129.836547 C135.869653,122.807881 124.413742,115.776251 112.860871,108.916522 C109.772858,107.081926 109.374737,104.177396 108.979553,101.231372 C107.933566,93.4543453 107.097658,85.6506439 106.097212,77.8676891 C105.262773,71.3858453 104.29024,64.9217842 103.420542,58.444386 C102.602263,52.3448731 101.825118,46.2409145 101.055318,40.1339921 C100.755625,37.765911 101.667926,36.1432272 103.931783,35.1918455 C115.320117,30.4082625 126.684944,25.5713309 138.057118,20.7507004 C141.095182,19.4629266 144.155282,18.2255376 147.153681,16.8488497 C148.32454,16.3109189 149.320579,15.9923097 150.500253,16.0219478" id="Fill-28" fill="#F26C21"></path>
                        <path d="M151.000225,24.0187797 C153.807687,23.8039111 155.905555,25.4845953 158.140336,26.4161829 C169.136107,31.0034793 180.07888,35.7202856 191.039318,40.3929407 C193.749616,41.5482271 194.267826,42.6431737 193.890946,45.4335215 C193.129825,51.0789719 192.5277,56.7450262 191.790134,62.3934201 C191.059929,67.9726439 190.213421,73.5371507 189.467021,79.1149028 C188.616097,85.4829592 187.725423,91.8480721 187.046745,98.2352606 C186.77439,100.785721 185.762997,102.668028 183.626852,103.971957 C174.989526,109.236236 166.343367,114.484327 157.700152,119.739776 C156.506208,120.465325 155.254848,121.115818 154.140402,121.948801 C152.145587,123.441108 150.284742,123.240956 148.241345,121.998839 C138.290828,115.948671 128.338838,109.89703 118.304405,103.988145 C115.622079,102.41048 115.274643,99.9100579 114.931623,97.3743146 C114.024755,90.6795404 113.297495,83.9597472 112.427432,77.2605578 C111.703115,71.681334 110.858079,66.1153554 110.102847,60.539075 C109.39178,55.2895125 108.717518,50.0325915 108.047673,44.7771422 C107.788568,42.7388344 108.580605,41.3407171 110.547448,40.5209788 C120.439078,36.4046272 130.311569,32.2397094 140.191422,28.0909803 C142.829583,26.9813167 145.488354,25.9158041 148.092654,24.7310837 C149.109936,24.2674974 149.975583,23.9937608 151.000225,24.0187797" id="Fill-30" fill="#D82D35"></path>
                        <path d="M151.00049,26.0181851 C153.676269,25.8109951 155.678322,27.424117 157.808354,28.3194737 C168.292289,32.7207808 178.726209,37.2464018 189.177781,41.7305849 C191.760886,42.8390512 192.255147,43.8898004 191.896219,46.5669909 C191.171008,51.9835288 190.597312,57.4222657 189.892695,62.8417635 C189.196904,68.1961444 188.390787,73.5357261 187.680286,78.8886271 C186.868285,84.9992514 186.018037,91.105436 185.37079,97.2352994 C185.111891,99.683101 184.146904,101.490094 182.109547,102.739153 C173.874796,107.791629 165.629749,112.827825 157.389115,117.871421 C156.250548,118.568467 155.056082,119.191517 153.994009,119.992158 C152.093455,121.423249 150.319409,121.230858 148.368842,120.039516 C138.880785,114.233757 129.3942,108.425038 119.823767,102.756912 C117.26714,101.242946 116.936161,98.8425017 116.609596,96.4080194 C115.743167,89.9851302 115.051789,83.5385621 114.222136,77.1082732 C113.530758,71.7538923 112.726112,66.4143106 112.005314,61.0628895 C111.327175,56.0237333 110.68287,50.9816173 110.04592,45.9365414 C109.797318,43.9815559 110.553421,42.6392609 112.428967,41.8534189 C121.859653,37.9020101 131.274159,33.9062034 140.693078,29.925196 C143.209987,28.8611275 145.744548,27.8370171 148.227624,26.700432 C149.198495,26.2564535 150.022264,25.9930263 151.00049,26.0181851" id="Fill-32" fill="#F26C21"></path>
                        <path d="M151.000137,34.014957 C153.21937,33.8445739 154.878265,35.1709186 156.644803,35.9053288 C165.340362,39.5186267 173.991683,43.234742 182.659224,46.9156057 C184.801779,47.8262743 185.21171,48.6884718 184.913847,50.8872958 C184.312221,55.3348836 183.837408,59.7986285 183.252003,64.249154 C182.67397,68.6453331 182.005988,73.0297617 181.416159,77.424472 C180.743754,82.4404933 180.038908,87.4550458 179.502163,92.488693 C179.286875,94.4980391 178.487657,95.9815476 176.797796,97.0067842 C169.969047,101.156202 163.131451,105.289462 156.298279,109.431535 C155.354552,110.002906 154.363639,110.515524 153.483318,111.172087 C151.905525,112.347143 150.433901,112.18998 148.819243,111.211745 C140.950921,106.443955 133.082598,101.674695 125.146445,97.0214724 C123.026009,95.7773816 122.753212,93.8076936 122.480416,91.810098 C121.762299,86.5355643 121.18869,81.241936 120.500065,75.9629958 C119.92793,71.5668167 119.261423,67.1823881 118.662746,62.7891466 C118.100934,58.6514798 117.567138,54.5108754 117.037767,50.370271 C116.832801,48.7633816 117.45802,47.6632352 119.013695,47.0169543 C126.834831,43.7737991 134.641222,40.4924545 142.453511,37.2228606 C144.540032,36.3489125 146.641299,35.5102161 148.701277,34.5760464 C149.50492,34.211779 150.189122,33.9958624 151.000137,34.014957" id="Fill-34" fill="#D82D35"></path>
                        <path d="M150.500237,36.0139731 C152.555843,35.8547498 154.094252,37.0946274 155.730825,37.7816464 C163.786222,41.165141 171.802061,44.6429902 179.831086,48.0869308 C181.816365,48.9390702 182.195839,49.7469809 181.920391,51.8036149 C181.362168,55.9670088 180.922623,60.1451455 180.380517,64.3100137 C179.845737,68.424756 179.225979,72.527704 178.679478,76.6409721 C178.056789,81.3351102 177.403332,86.0292483 176.90518,90.7396037 C176.707385,92.6193229 175.966019,94.0081037 174.401238,94.9678663 C168.074718,98.8511451 161.739407,102.721155 155.408492,106.595588 C154.533797,107.130756 153.616612,107.6099 152.800524,108.224679 C151.339769,109.325973 149.977179,109.17707 148.479795,108.261536 C141.189206,103.800335 133.900082,99.3376607 126.547956,94.9826092 C124.583189,93.8179204 124.329718,91.9735841 124.077712,90.1041848 C123.412534,85.1667889 122.880684,80.2131758 122.243344,75.2728313 C121.712959,71.158089 121.094666,67.055141 120.540839,62.9433472 C120.019245,59.0718627 119.52549,55.1959553 119.034664,51.3200479 C118.84566,49.8177468 119.425859,48.7872183 120.866102,48.1827596 C128.112737,45.145723 135.34472,42.076252 142.581099,39.0156268 C144.515097,38.1988703 146.462282,37.4130739 148.369908,36.5388202 C149.11567,36.1982593 149.748615,35.9948073 150.500237,36.0139731" id="Fill-36" fill="#F26C21"></path>
                        <path d="M121.280179,76.2097747 C120.564571,75.0482102 120.217788,74.4614712 119.866596,73.6617787 C117.941654,69.2895308 117.965165,64.6432728 118.013656,59.9955257 C118.018064,59.7021562 118.018064,59.3492193 118.056269,58.9099096 C118.134148,57.9732121 118.48387,54.4244837 121.290465,51.444624 C122.321999,50.3500728 123.313858,49.7275934 123.681213,49.5086832 C125.738403,48.2845729 127.716244,48.0418357 128.7948,47.9941818 C142.840998,47.6352881 149.243266,47.4967939 149.393147,47.5399803 C149.496007,47.5682748 149.560661,47.5533829 149.68997,47.5429586 C149.712012,47.5399803 149.779605,47.5325343 149.800177,47.489348 C149.808993,47.4699885 149.813402,47.4342481 149.816341,47.4074428 C149.81781,47.3940401 149.819279,47.3836158 149.819279,47.3761699 C149.819279,47.0351465 149.820749,46.6926339 149.822218,46.3501212 C148.252876,46.2652377 146.682065,46.1773758 145.106845,46.0865355 C141.708074,45.8914522 138.329874,45.6814771 134.967838,45.4625668 C134.247822,42.9249952 134.284557,40.8297115 134.407989,39.5400771 C134.565217,37.891549 134.729792,36.1700509 135.900921,34.6823548 C137.004456,33.2810315 138.501797,32.7181195 140.116691,32.2579612 C146.496918,30.4396661 152.91535,30.6913384 159.273536,32.3785852 C162.027231,33.108286 164.027114,34.9206245 165.193834,37.6011579 C166.583907,43.4387641 165.752214,49.3493403 165.7625,55.2346004 C165.7625,55.3939433 165.68756,55.5488185 165.647885,55.705183 C164.557575,59.9925473 161.382155,62.4765083 156.621231,62.6090458 C152.778694,62.7162671 148.922932,62.8041291 145.089212,62.6045782 C140.557517,62.369287 137.382098,62.8339128 135.44687,64.7430482 C133.784954,66.3826412 133.66887,69.2999551 133.182492,74.5701817 C133.076693,75.70643 133.028202,76.6475951 133.003222,77.2834772 C132.872444,77.6825789 132.599131,78.2871881 132.01871,78.6028953 C131.633721,78.8128705 131.278122,78.8098921 130.966604,78.8098921 C129.602981,78.8143597 128.240828,78.9424296 126.877205,78.9871051 C126.501033,79.0005078 125.92502,79.0213564 125.191779,78.9424296 C124.827362,78.9052 124.433557,78.8277623 123.973628,78.696714 C123.839911,78.6609736 123.643009,78.5969386 123.416718,78.4897173 C122.529187,78.0712562 121.995787,77.3713391 121.280179,76.2097747" id="Fill-38" fill="#FEFEFE"></path>
                        <path d="M166.42607,39.4172575 C166.42607,39.4172575 166.409748,39.9756599 166.424587,40.6293277 C166.436457,41.2668738 166.552198,41.7153544 166.599681,41.9498541 C166.808904,42.9757902 167.141287,46.915385 166.935032,50.5149552 C166.687228,54.854665 166.562585,57.0252528 165.406664,58.8103816 C163.121531,62.3425332 158.604685,63.198457 156.628194,63.5721909 C150.611173,64.7139113 148.242945,62.1666584 140.982456,63.5956409 C139.100931,63.9664435 137.574047,64.4676866 136.370643,65.7207943 C134.250218,67.926557 134.143381,71.4059461 134.132994,71.6946738 C134.076608,73.3713466 134.162671,75.0509506 134.094414,76.7276234 C133.984609,79.3804011 133.465261,79.8596598 130.71865,79.9607878 C127.672301,80.0736408 127.40224,80.0120846 126,78.8234643 C126.921472,78.7179395 127.678237,78.6915583 128.199069,78.6871614 C128.199069,78.6871614 130.98426,78.6607802 132.32863,78.2504057 C132.508176,78.194712 132.830172,78.0715997 132.861333,77.8664125 C132.868752,77.8195125 132.855397,77.7975282 132.843527,77.670019 C132.824236,77.4619005 132.839075,77.3109414 132.840559,77.2611102 C132.858365,76.8829794 132.668432,72.4817134 132.815333,70.5324348 C132.925138,69.0521555 133.162555,66.2337624 135.171691,64.2698275 C136.654059,62.8188607 138.818999,62.0450117 141.621996,61.9995774 C146.54245,61.9204337 151.464388,61.9834555 156.384842,61.9731962 C162.789149,61.9600056 165.87111,58.9173721 165.884464,52.5814837 C165.894851,47.7214777 165.877045,42.8614716 165.87111,38 C166.486908,38.3077808 166.38749,38.8896332 166.42607,39.4172575" id="Fill-40" fill="#CC2B31"></path>
                        <path d="M181.486609,73.8750794 C180.538921,75.1146338 179.589787,76.3527667 178.642099,77.5923211 C178.278939,77.9050528 177.71322,78.3570921 176.962304,78.8077099 C174.550403,80.2533829 172.228206,80.4836671 170.049248,80.6442975 C158.593077,81.4886729 156.522632,80.5675361 153.759146,80.5462135 C152.688476,80.5376844 151.274902,80.9086978 151,79.200046 C151.830493,78.0287239 153.112403,78.342877 154.240947,78.3329265 C159.517615,78.2874383 164.802964,78.1680316 170.073844,78.3556706 C174.951181,78.530516 178.519117,76.9142621 180.413045,72.3242148 C180.589561,71.8949196 180.852888,71.5025836 181.201579,71.1770584 C181.437416,70.9752043 181.693509,70.9467742 181.968411,71.0875034 C182.127564,72.069765 181.641422,72.9454135 181.486609,73.8750794" id="Fill-42" fill="#C82C31"></path>
                        <path d="M150.467909,78.8979013 C150.511646,79.0729123 150.609324,79.3582243 150.860079,79.5641196 C151.174981,79.8214887 151.565693,79.8170766 151.724602,79.8156059 C152.482699,79.8082525 155.023783,79.8273714 158.493537,79.8288421 C163.34536,79.8067819 168.195725,79.7847216 173.046091,79.7626614 C173.46596,79.7538374 174.079727,79.6950101 174.77222,79.4494065 C175.272273,79.2729249 175.681937,79.0170265 176.504181,78.5052297 C177.276857,78.0257878 177.670485,77.7772429 178.046618,77.4198675 C178.548128,76.938955 178.87032,76.4551011 179.064218,76.119786 C178.98695,76.5183404 178.906767,76.9507205 178.825125,77.4139848 C178.825125,77.4139848 178.707037,78.0772617 178.599154,78.7434799 C178.416919,79.8582557 178.260926,80.9450885 178.128259,82.0010371 C177.682148,85.024756 177.43285,87.3837274 177.287062,88.9794157 C177.15148,90.4765684 177.071296,91.6913504 176.316115,93.0311403 C175.499702,94.4812312 174.364014,95.2886348 173.756078,95.6621876 C168.883844,98.6638463 163.985369,101.622855 159.11022,104.620102 C158.769076,104.830409 157.093972,105.904006 153.692739,107.977666 C152.944847,108.433576 152.010346,108.986552 150.760943,108.999788 C149.284111,109.014495 148.180496,108.258565 147.741675,107.967371 C141.206,103.620039 134.327724,99.8227425 127.652094,95.6989546 C127.198693,95.4180546 125.958038,94.6694783 125.25534,93.1870324 C124.887954,92.4119838 124.812144,91.7413536 124.781529,91.4692777 C124.557015,89.5294502 123.892222,84.735032 123,78.2243297 C123.314902,78.5155244 123.791629,78.89496 124.438927,79.2111563 C125.076021,79.5229405 125.656257,79.6641258 126.074668,79.7332478 C128.945233,79.746484 131.076653,79.7303065 132.03448,79.7376599 C133.133721,79.7479546 133.317414,79.0714416 133.310124,78.1640318 C133.295546,75.9241855 133.267846,73.6813979 133.317414,71.4415516 C133.426755,66.5986009 136.689489,63.3895762 141.490287,63.3748694 C146.250264,63.3616333 151.011698,63.3939882 155.771675,63.3645746 C159.413459,63.3439851 162.298602,62.2395041 164.033479,60.0820159 C164.166146,59.915829 164.295897,59.7231699 164.295897,59.7231699 C165.59341,57.8554057 165.871865,55.9082248 166.016195,54.4566633 C166.231961,52.2491719 166.183851,50.6637784 166.126994,48.2901002 C166.094921,46.9047192 166.046811,44.7310536 166.004532,42 C173.632158,45.3884477 179.175016,47.8753683 180.412756,48.4048133 C180.60228,48.4857007 181.143154,48.7151269 181.533866,49.2592786 C182.003303,49.9122607 182.004761,50.6637784 181.998929,51.0770396 C181.96394,53.5242519 181.459514,57.4524393 181.418693,57.7583408 C181.080465,56.6656253 180.479819,55.1081747 179.383493,53.4433644 C178.395051,51.940329 177.44014,50.4269989 175.508449,49.4431137 C173.95435,48.6518876 172.137832,48.3930478 170.072016,48.6651237 C168.891134,48.8195452 168.393997,49.3872278 168.363381,50.5270051 C168.324019,52.0506301 168.408576,53.5771964 168.316729,55.0978799 C167.984333,60.559987 165.64881,65.4235272 158.118861,65.0573278 C154.151971,64.8646687 150.169044,65.0367383 146.193406,65.0176194 C144.591197,65.0087954 143.016687,65.1749822 141.472792,65.5897141 C137.785815,66.5809527 135.964923,68.8560954 135.913897,72.6857472 C135.852666,77.1772052 135.889113,81.6686633 135.899319,86.1601213 C135.908066,90.1030156 137.097696,91.7810619 140.805083,93.1414413 C141.551518,93.4149879 142.330025,93.6017643 143.037097,93.9782585 C145.206422,95.2430437 147.660033,95.0812688 149.986809,95.1209772 C153.67816,95.1842164 157.433658,95.2062766 160.964642,93.8356025 C162.92549,93.0752607 164.606426,91.8781268 165.258098,89.6765182 C165.720246,87.2101871 165.895191,84.7497388 165.182288,82.2995852 C164.978185,82.1436931 164.776998,81.9907423 164.561231,81.8554397 C160.678898,80.9112629 156.746997,81.6348376 152.848627,81.4377665 C152.145929,81.4024701 151.421363,81.5627743 150.743449,81.3259947 C149.46343,80.8818492 149.373042,79.9817928 150.467909,78.8979013" id="Fill-44" fill="#F26C21"></path>
                        <path d="M149.972046,46.8271272 C145.821702,46.8291272 141.67284,46.8341272 137.522496,46.8301272 C136.584892,46.8291272 135.556934,46.9721272 135,46.2301272 C139.520645,46.2151272 144.041291,46.1901272 148.563418,46.1941272 C149.170713,46.1941272 150.180896,45.9361272 149.972046,46.8271272" id="Fill-46" fill="#C7292F"></path>
                        <path d="M143.568827,38 C144.444854,39.4262238 143.896971,40.6037727 142.725028,41.4302511 C141.522322,42.2786715 140.24051,42.2201597 139.20627,40.9797107 C139.048058,40.687152 138.964557,40.3799653 139.014365,40.0435227 C139.103725,39.84312 139.234104,39.6748987 139.404036,39.5344706 C140.700497,38.7811318 142.048231,38.1535933 143.568827,38" id="Fill-48" fill="#E9393C"></path>
                        <path d="M144,37.9494002 C142.865915,39.1025684 141.423989,39.433614 140.070017,40 C139.690212,37.2574993 140.848284,36.425963 143.722809,37.3798763 L144,37.9494002 Z" id="Fill-50" fill="#D7323B"></path>
                        <path d="M144,37.2766239 C142.200894,37.4719647 139.860531,36.7199026 139.82089,39.9951165 L139.817841,40 C138.495955,39.6093184 139.130216,38.6847054 139.311651,37.8838081 C140.979636,35.5511136 141.935602,35.4273978 144,37.2766239" id="Fill-52" fill="#C42C32"></path>
                        <path d="M139.496756,38 C139.554756,38.6615688 139.351756,39.4193389 139.828756,39.9240257 C139.819756,40.2821904 139.810756,40.6418352 139.801756,41 C139.141756,40.1253083 138.934756,39.1484953 139.496756,38" id="Fill-54" fill="#D7323B"></path>
                        <path d="M142.856148,95.0633416 C141.598231,94.5922372 140.2921,94.2230332 139.094083,93.6293531 C138.017329,93.0947456 136.676134,92.2249009 135.808302,90.7082106 C134.966768,89.2358249 134.991605,87.7619623 135.003293,86.9334684 C135.047123,83.7243468 135.029591,79.3411563 135.054428,73.91238 C135.016442,72.6762848 135.090953,69.4893154 137.294135,67.2548925 C137.893144,66.6479211 139.194892,65.0101319 143.865697,64.9082316 C148.158104,64.8137153 152.46366,64.7044309 156.747302,64.9259534 C165.593634,65.3822896 167.852335,60.3640681 167.716462,53.9487785 C167.677015,52.0820829 166.638247,48.9482789 168.341769,48.5126181 C171.322201,47.7535346 174.815443,47.5290585 177.601563,50.0573678 C179.40005,51.6892497 180.168534,53.8690305 181.128408,55.9705399 C181.417686,57.6201436 181.708424,59.2712241 181.999162,60.9208278 C182.009389,64.2909224 181.936339,67.6506793 181.195614,70.9587475 C179.804746,74.514921 178.288232,77.9751013 174.052803,78.8818665 C173.053482,79.0960048 172.007408,79.1521238 170.981789,79.1609847 C164.147248,79.223011 157.314168,79.2525473 150.479627,79.2938982 C149.585498,80.7751448 150.025257,81.3599641 151.706864,81.3392886 C155.574122,81.2920305 159.44284,81.3053219 163.310097,81.3378118 C164.110723,81.3437191 165.107123,80.9538396 165.564414,82.0909881 C166.040699,84.470139 165.977876,86.9054089 165.703209,89.2565003 C165.345265,92.312033 163.025203,93.8804118 160.328204,94.6852766 C155.262929,96.1990133 150.098307,96.3688471 144.903004,95.3838107 C144.223641,95.2538509 143.932903,95.3380294 142.856148,95.0633416" id="Fill-56" fill="#FEFEFE"></path>
                        <path d="M143,94.7020396 C148.177311,95.3079315 153.369091,95.7157155 158.488522,94.3882483 C164.795928,92.7527739 165.762513,90.5923861 165.379062,85.5312364 C165.289349,84.3642799 165.447071,83.1785248 165.49048,82 C165.571511,82.033259 165.651096,82.066518 165.73068,82.101223 C166.089532,84.7460352 166.089532,87.3922934 165.732127,90.0371056 C165.429707,92.2914863 163.725159,93.5697881 161.948262,94.1973706 C155.73057,96.3924635 149.371073,96.60937 143,94.7020396" id="Fill-58" fill="#CC3235"></path>
                        <path d="M160.954194,85.2380916 C162.43832,86.4836753 162.229592,87.9057647 161.037685,89.0709882 C159.841459,90.2419517 158.407716,90.4313723 157.188458,88.9088327 C156.481663,85.6843779 157.768577,84.4301841 160.954194,85.2380916" id="Fill-60" fill="#E9353B"></path>
                        <path d="M161,85.0014103 C157.465635,85.0748793 156.893645,85.6282416 156.877887,89 C155.623605,87.6228469 155.763846,86.1847302 156.977159,84.962331 C158.233016,83.6977262 159.671659,83.6477048 161,85.0014103" id="Fill-62" fill="#D0373B"></path>
                        <mask id="mask-6" fill="white">
                            <use xlink:href="#path-5"></use>
                        </mask>
                        <g id="Clip-65"></g>
                        <polygon id="Fill-64" fill="#FEFEFE" mask="url(#mask-6)" points="204 174 207 174 207 143 204 143"></polygon>
                        <path d="M189.611624,155.885449 C185.696857,155.885449 184.131238,158.423217 184.131238,163.192676 C184.131238,167.76898 185.398712,170.577166 189.350928,170.577166 C192.817758,170.577166 194.645514,167.654572 194.645514,162.846482 C194.645514,158.693635 192.817758,155.885449 189.611624,155.885449 Z M181.037448,184 L181.037448,158.231547 C181.037448,156.616469 181.037448,154.961273 181,153.462088 L184.168686,153.462088 C184.242142,154.115845 184.28103,155.268836 184.28103,156.53772 C185.323816,154.539302 187.225028,153 190.47005,153 C194.831314,153 198,156.769507 198,162.691957 C198,169.691622 194.383377,173.422498 189.798865,173.422498 C186.741083,173.422498 185.138016,172.114983 184.28103,170.538535 L184.28103,184 L181.037448,184 Z" id="Fill-66" fill="#FEFEFE" mask="url(#mask-6)"></path>
                        <path d="M236.251499,168.086577 C236.768199,170.158603 238.282615,171.401237 240.831858,171.401237 C243.566657,171.401237 244.637168,170.196435 244.637168,168.463441 C244.637168,166.656239 243.787896,165.826846 240.203825,164.961077 C234.846988,163.642779 233.739366,161.947617 233.739366,159.348854 C233.739366,156.674427 235.69626,154 240.500714,154 C245.339423,154 247.334856,156.862132 247.556095,159.498727 L244.454468,159.498727 C244.157579,158.293925 243.234085,156.562386 240.389381,156.562386 C237.765915,156.562386 236.953754,157.841397 236.953754,159.084031 C236.953754,160.515824 237.728804,161.231721 241.16443,162.059658 C246.855267,163.453619 248,165.374318 248,168.200073 C248,171.551109 245.377962,174 240.721953,174 C235.881816,174 233.481016,171.513278 233,168.086577 L236.251499,168.086577 Z" id="Fill-67" fill="#FEFEFE" mask="url(#mask-6)"></path>
                        <path d="M228.960803,167.834016 C228.960803,169.760328 229,172.657239 229,173.81243 L225.683313,173.81243 C225.604918,173.310755 225.565721,171.841459 225.526524,170.608857 C224.551117,172.76591 222.678696,174 219.556487,174 C216.200603,174 213,172.341645 213,166.832155 L213,154 L216.395082,154 L216.395082,166.138444 C216.395082,168.681057 217.2137,171.070339 220.492698,171.070339 C224.122962,171.070339 225.526524,169.066617 225.526524,164.173428 L225.526524,154 L228.960803,154 L228.960803,167.834016 Z" id="Fill-68" fill="#FEFEFE" mask="url(#mask-6)"></path>
                        <polygon id="Fill-69" fill="#FEFEFE" mask="url(#mask-6)" points="260.594863 146 260.594863 152.366693 267 152.366693 267 154.471618 260.594863 154.471618 260.594863 161 258.432226 161 258.432226 154.471618 252 154.471618 252 152.366693 258.432226 152.366693 258.432226 146"></polygon>
                        <path d="M57.9057008,172.008529 C62.4528504,171.743849 63.0201304,167.583962 63.0201304,164.309283 C63.0201304,161.124302 62.4528504,156.345358 58.14182,156.168905 C55.2059236,155.990981 52.8373072,157.273209 52.3635839,157.717283 L52.3635839,170.326341 C53.5011138,170.990981 55.7746886,172.140869 57.9057008,172.008529 Z M58.7581058,154.044113 C64.3952644,153.955887 66.9524792,158.911283 67,164.53132 C67,169.486717 64.3477436,174.13185 58.6630641,174.309774 C56.3419685,174.309774 54.3535187,173.646603 52.4111047,172.539359 L52.4111047,184 L49,182.850113 L49.0490059,157.407019 C49,157.407019 51.7012623,154.088227 58.7105849,154 L58.7581058,154.044113 Z" id="Fill-70" fill="#FEFEFE" mask="url(#mask-6)"></path>
                        <path d="M75.427595,167.579786 C75.427595,170.552945 77.6511747,172.105889 80.6619393,172.061646 C82.4686886,172.017402 84.5063648,171.041097 85.6188808,170.331727 L85.6188808,154.488153 L89,154.488153 L89,172.105889 C89,174.369678 88.8620248,177.786747 87.8889364,179.562383 C86.1751388,182.668273 81.3576249,183.911513 77.9285775,184 L77.3737719,181.958903 C79.9662537,181.60348 83.6741563,181.248058 85.0626228,178.718808 C85.7583084,177.475568 85.8047843,175.034805 85.8047843,173.614591 C85.8047843,173.126438 85.8498078,173.260643 85.8047843,172.77249 C84.78522,173.2164 82.5151645,174.281192 78.5313114,174.281192 C75.4740709,174.281192 72,172.194376 72,168.600334 L72,155.109035 L75.427595,154 L75.427595,167.624029 L75.427595,167.579786 Z" id="Fill-71" fill="#FEFEFE" mask="url(#mask-6)"></path>
                        <path d="M93,156.54773 L93,154.488001 L95.4392109,154.488001 L95.4392109,149.140571 L98.9993883,148 L98.9993883,154.488001 L103,154.488001 L103,156.54773 L98.9993883,156.54773 L98.9993883,169.040117 C98.9993883,171.58346 100.511852,172.196717 103,172.284117 L103,173.949089 C98.2668604,174.343846 95.4392109,172.415217 95.4392109,169.127517 L95.4392109,156.54773 L93,156.54773 Z" id="Fill-72" fill="#FEFEFE" mask="url(#mask-6)"></path>
                        <path d="M121.466755,174 L121.466755,161.457519 C121.466755,159.188758 120.273536,156.609612 117.455923,156.609612 C115.259621,156.609612 113.253457,157.809764 111.486834,158.967054 L111.486834,174 L108,174 L108,144.02279 L111.486834,143 L111.486834,156.653953 C113.587318,155.230619 115.975253,154.385191 118.792867,154.385191 C122.517745,154.385191 125,157.054496 125,160.434729 L125,174 L121.466755,174 Z" id="Fill-73" fill="#FEFEFE" mask="url(#mask-6)"></path>
                        <path d="M132.789601,163.693804 C132.789601,167.362357 134.068647,171.990132 138.522283,172.035118 C143.356216,171.903062 144.208913,167.362357 144.208913,163.693804 C144.208913,160.244377 142.88233,156.401683 138.427209,156.182557 C133.689836,156.445218 132.742064,160.244377 132.742064,163.693804 L132.789601,163.693804 Z M138.474746,154 C144.445113,154.043535 147.952463,158.540705 148,163.693804 C148,168.977507 144.871462,173.956465 138.427209,174 C132.031978,173.956465 129,168.977507 129,163.693804 C129,158.540705 132.551916,154.043535 138.474746,154 Z" id="Fill-74" fill="#FEFEFE" mask="url(#mask-6)"></path>
                        <path d="M165.483748,174 L165.483748,160.741022 C165.483748,157.760081 163.365542,156.112875 160.282593,156.157234 C158.40595,156.201593 156.622913,156.958657 155.514742,157.671363 L155.514742,174 L152,174 L152,157.270651 C153.783037,156.068515 155.371314,155.134014 157.587655,154.600224 C159.319361,154.155153 161.67913,153.710082 164.183837,154.243872 C166.736856,154.777661 169,156.469227 169,159.093816 L169,174 L165.483748,174 Z" id="Fill-75" fill="#FEFEFE" mask="url(#mask-6)"></path>
                    </g>
                </g>
            </g>
        </g>
    </g>
</svg>