<?xml version="1.0" encoding="UTF-8"?>
<svg width="64px" height="64px" viewBox="0 0 64 64" version="1.1" xmlns="http://www.w3.org/2000/svg" xmlns:xlink="http://www.w3.org/1999/xlink">
    <!-- Generator: Sketch 52.6 (67491) - http://www.bohemiancoding.com/sketch -->
    <title>Group 12</title>
    <desc>Created with Sketch.</desc>
    <g id="Page-1" stroke="none" stroke-width="1" fill="none" fill-rule="evenodd">
        <g id="Camps_Python_Jan30" transform="translate(-688.000000, -2682.000000)">
            <g id="Group-14" transform="translate(0.000000, 2677.000000)">
                <g id="Group-12" transform="translate(688.000000, 0.000000)">
                    <circle id="Oval" fill="#181F6C" fill-rule="nonzero" cx="32" cy="37" r="32"></circle>
                    <path d="M30.8125,48.90625 L17.21875,48.90625 L17.21875,38.4375 C17.21875,34.5833141 18.0208253,31.5416778 19.625,29.3125 C21.2291747,27.0833222 23.9791472,25.1145919 27.875,23.40625 L30.8125,28.96875 C28.4166547,30.0937556 26.7604213,31.2135361 25.84375,32.328125 C24.9270787,33.4427139 24.4166672,34.7604091 24.3125,36.28125 L30.8125,36.28125 L30.8125,48.90625 Z M46.65625,48.90625 L33.0625,48.90625 L33.0625,38.4375 C33.0625,34.5833141 33.8645753,31.5416778 35.46875,29.3125 C37.0729247,27.0833222 39.8228972,25.1145919 43.71875,23.40625 L46.65625,28.96875 C44.2604047,30.0937556 42.6041713,31.2135361 41.6875,32.328125 C40.7708287,33.4427139 40.2604172,34.7604091 40.15625,36.28125 L46.65625,36.28125 L46.65625,48.90625 Z" id="“" fill="#FFFFFF"></path>
                </g>
            </g>
        </g>
    </g>
</svg>