<?xml version="1.0" encoding="UTF-8"?>
<svg width="47px" height="56px" viewBox="0 0 47 56" version="1.1" xmlns="http://www.w3.org/2000/svg" xmlns:xlink="http://www.w3.org/1999/xlink">
    <!-- Generator: Sketch 52.6 (67491) - http://www.bohemiancoding.com/sketch -->
    <title>Group 19</title>
    <desc>Created with Sketch.</desc>
    <defs>
        <polygon id="path-1" points="0 0.345004323 31.939219 0.345004323 31.939219 44.15904 0 44.15904"></polygon>
        <polygon id="path-3" points="0.363682293 1.51488 2.28368229 1.51488 2.28368229 8.55648 0.363682293 8.55648"></polygon>
    </defs>
    <g id="Page-1" stroke="none" stroke-width="1" fill="none" fill-rule="evenodd">
        <g id="Camps_Python_Jan30" transform="translate(-775.000000, -3839.000000)">
            <g id="Group-27" transform="translate(235.000000, 3472.000000)">
                <g id="Group-12" transform="translate(0.000000, 137.000000)">
                    <g id="Group-11" transform="translate(500.000000, 0.000000)">
                        <g id="Group-19" transform="translate(40.000000, 229.000000)">
                            <g id="Group-3" transform="translate(0.000000, 11.924928)">
                                <mask id="mask-2" fill="white">
                                    <use xlink:href="#path-1"></use>
                                </mask>
                                <g id="Clip-2"></g>
                                <path d="M31.024896,11.03712 C29.544576,10.23648 28.989696,11.46912 28.434816,12.456 C27.263616,14.42976 26.029056,16.40352 24.857856,18.37728 C24.671616,18.2544 24.487296,18.19296 24.302976,18.06816 C24.487296,17.57472 24.671616,17.01984 24.919296,16.5264 C26.706816,13.50432 28.619136,10.48224 30.345216,7.3968 C30.531456,7.0896 30.470016,6.59616 30.408576,6.16416 C30.285696,5.42496 29.544576,4.93152 28.743936,5.0544 C28.187136,5.17728 27.755136,5.30208 27.447936,5.60928 C26.399616,6.7824 25.719936,8.32224 24.857856,9.67968 C23.746176,11.53056 22.636416,13.31808 21.526656,15.16896 C21.278976,15.04608 21.094656,14.86176 20.846976,14.73888 C21.278976,14.0592 21.710976,13.31808 22.142976,12.64032 C23.932416,9.61824 25.844736,6.59616 27.509376,3.51264 C27.693696,3.14208 27.632256,2.64864 27.509376,2.09376 C27.325056,1.35456 26.522496,0.86112 25.783296,1.04544 C25.287936,1.16832 24.857856,1.2912 24.423936,1.47744 C23.993856,1.66176 23.807616,2.34144 23.561856,2.83488 C21.649536,5.97984 19.737216,9.1248 17.824896,12.27168 L17.270016,12.024 C17.517696,11.53056 17.640576,10.91424 17.947776,10.48224 C19.491456,7.89216 21.156096,5.3616 22.513536,2.71008 C22.697856,2.34144 22.636416,1.90944 22.513536,1.416 C22.327296,0.67488 21.649536,0.24288 20.908416,0.36576 C20.416896,0.42912 19.862016,0.552 19.491456,0.79776 C18.936576,1.10688 18.627456,2.03232 18.256896,2.71008 C15.789696,6.84192 13.261056,10.91424 10.793856,15.04608 C10.238976,14.61408 10.300416,14.24352 10.177536,13.87488 C9.684096,12.20832 9.252096,10.4208 8.510976,8.87712 C8.326656,8.50848 7.894656,8.32224 7.401216,8.13792 C6.723456,7.89216 5.984256,8.13792 5.675136,8.8176 C5.550336,9.06336 5.427456,9.37248 5.427456,9.67968 C5.304576,10.728 5.550336,11.83776 5.550336,12.888 C5.675136,18.93216 10.980096,23.86656 7.401216,29.6016 L-0.000384,36.01824 L7.956096,44.15904 L16.653696,33.67392 C23.377536,26.08608 26.461056,21.95424 31.209216,14.18208 C31.825536,13.07232 32.566656,11.90112 31.024896,11.03712" id="Fill-1" fill="#BFBEBE" mask="url(#mask-2)"></path>
                            </g>
                            <path d="M28.8048,30.918528 L28.06368,31.843968 L25.16448,30.672768 L25.53504,33.756288 L24.48672,34.249728 C20.78688,35.852928 16.34592,34.558848 13.63104,31.041408 C10.91808,27.525888 10.73184,22.900608 13.19904,19.692288 L13.69248,19.075968 L17.45568,23.948928 C17.33088,24.258048 17.208,24.628608 17.208,24.997248 C17.14656,25.922688 17.45568,26.848128 18.072,27.587328 C18.68832,28.389888 19.49088,28.883328 20.35488,29.067648 C20.72544,29.129088 21.09408,29.129088 21.46464,29.067648 L22.94496,30.979968 L26.02848,28.574208 L24.54816,26.663808 C25.0416,25.613568 24.85728,24.133248 23.99328,22.962048 C23.06784,21.790848 21.77184,21.297408 20.60064,21.481728 L16.83936,16.670208 L17.51712,16.361088 C21.21696,14.757888 25.65792,16.053888 28.3728,19.569408 C31.08576,23.084928 31.272,27.773568 28.8048,30.918528" id="Fill-4" fill="#F26C21"></path>
                            <path d="M33.492288,40.787712 C32.628288,41.404032 31.457088,41.158272 30.900288,40.294272 C30.285888,39.430272 30.531648,38.259072 31.332288,37.640832 C32.196288,37.026432 33.369408,37.272192 33.924288,38.136192 C34.540608,38.998272 34.356288,40.171392 33.492288,40.787712 M29.729088,35.730432 C28.865088,36.346752 27.693888,36.100992 27.139008,35.236992 C26.522688,34.372992 26.768448,33.199872 27.571008,32.585472 C28.435008,31.967232 29.606208,32.214912 30.161088,33.076992 C30.777408,33.940992 30.593088,35.112192 29.729088,35.730432 M40.277568,40.601472 L28.928448,26.293632 L20.353728,33.076992 L31.641408,47.325312 C32.628288,43.502592 36.143808,40.601472 40.277568,40.601472" id="Fill-6" fill="#292A68"></path>
                            <path d="M42.374208,43.254144 C41.694528,43.008384 41.016768,42.885504 40.277568,42.885504 C36.637248,42.885504 33.676608,45.846144 33.676608,49.484544 L33.676608,49.916544 C33.924288,53.370624 36.762048,56.083584 40.214208,56.083584 C43.915968,56.145024 46.876608,53.184384 46.876608,49.545984 C46.876608,46.585344 44.964288,44.118144 42.374208,43.254144" id="Fill-8" fill="#292A68"></path>
                            <path d="M11.9664,13.340544 C11.84352,13.340544 11.65728,13.279104 11.5344,13.154304 L7.464,9.022464 C7.21632,8.776704 7.21632,8.406144 7.464,8.219904 C7.70976,7.974144 8.08032,7.974144 8.26464,8.219904 L12.33504,12.353664 C12.58272,12.599424 12.58272,12.969984 12.33504,13.154304 C12.21216,13.279104 12.08928,13.340544 11.9664,13.340544" id="Fill-10" fill="#49474E"></path>
                            <g id="Group-14" transform="translate(23.040000, 0.404928)">
                                <mask id="mask-4" fill="white">
                                    <use xlink:href="#path-3"></use>
                                </mask>
                                <g id="Clip-13"></g>
                                <path d="M1.015488,8.55648 C1.015488,8.55648 0.954048,8.55648 1.015488,8.55648 C0.644928,8.49504 0.399168,8.24736 0.460608,7.94016 L1.076928,2.01888 C1.138368,1.70976 1.384128,1.464 1.693248,1.52352 C2.002368,1.58688 2.248128,1.83264 2.186688,2.14176 L1.570368,8.06304 C1.570368,8.3088 1.324608,8.55648 1.015488,8.55648" id="Fill-12" fill="#49474E" mask="url(#mask-4)"></path>
                            </g>
                            <path d="M35.40384,15.252096 C35.21952,15.252096 34.97184,15.129216 34.9104,14.942976 C34.78752,14.635776 34.84896,14.326656 35.15808,14.142336 L40.03104,11.552256 C40.33824,11.427456 40.64736,11.490816 40.83168,11.798016 C40.95648,12.107136 40.89312,12.414336 40.58592,12.600576 L35.71296,15.190656 C35.59008,15.252096 35.46528,15.252096 35.40384,15.252096" id="Fill-15" fill="#49474E"></path>
                            <path d="M42.435072,31.535424 L42.312192,31.535424 L37.193472,30.177984 C36.884352,30.116544 36.700032,29.745984 36.761472,29.438784 C36.822912,29.129664 37.130112,28.945344 37.500672,29.006784 L42.621312,30.364224 C42.928512,30.425664 43.114752,30.796224 43.051392,31.103424 C42.928512,31.351104 42.682752,31.535424 42.435072,31.535424" id="Fill-17" fill="#49474E"></path>
                        </g>
                    </g>
                </g>
            </g>
        </g>
    </g>
</svg>