<?xml version="1.0" encoding="UTF-8"?>
<svg width="47px" height="59px" viewBox="0 0 47 59" version="1.1" xmlns="http://www.w3.org/2000/svg" xmlns:xlink="http://www.w3.org/1999/xlink">
    <!-- Generator: Sketch 52.6 (67491) - http://www.bohemiancoding.com/sketch -->
    <title>Group 24</title>
    <desc>Created with Sketch.</desc>
    <defs>
        <polygon id="path-1" points="0 58.40192 46.7216 58.40192 46.7216 0.00032 0 0.00032"></polygon>
    </defs>
    <g id="Page-1" stroke="none" stroke-width="1" fill="none" fill-rule="evenodd">
        <g id="Camps_Python_Jan30" transform="translate(-705.000000, -4792.000000)">
            <g id="Group-22" transform="translate(0.000000, 4748.000000)">
                <g id="Group-24" transform="translate(705.000000, 44.000000)">
                    <path d="M23.36048,19.73408 C27.60528,19.73408 31.04528,21.57728 31.04528,23.85248 C31.04528,26.12768 27.60528,27.97088 23.36048,27.97088 C19.11728,27.97088 15.67568,26.12768 15.67568,23.85248 C15.67568,21.57728 19.11728,19.73408 23.36048,19.73408" id="Fill-1" fill="#BFBEBE"></path>
                    <path d="M38.5448,23.36064 L8.1768,23.36064 C5.5336,23.36064 3.3816,25.51264 3.3816,28.15584 L3.3816,30.12384 L3.3816,49.18144 L3.3816,51.14784 C3.3816,53.79264 9.7752,56.06464 9.7752,56.06464 C18.6888,59.20064 28.4632,59.20064 37.3768,55.94304 C37.3768,55.94304 43.34,53.79264 43.34,51.14784 L43.34,49.18144 L43.34,30.06144 L43.34,28.09504 C43.34,25.51264 41.188,23.36064 38.5448,23.36064" id="Fill-3" fill="#292A68"></path>
                    <path d="M14.8768,28.40112 C17.288,28.40112 19.2416,30.35632 19.2416,32.76752 C19.2416,35.17712 17.288,37.13072 14.8768,37.13072 C12.4672,37.13072 10.512,35.17712 10.512,32.76752 C10.512,30.35632 12.4672,28.40112 14.8768,28.40112" id="Fill-5" fill="#F26C21"></path>
                    <path d="M31.844,28.40112 C34.2552,28.40112 36.2088,30.35632 36.2088,32.76752 C36.2088,35.17712 34.2552,37.13072 31.844,37.13072 C29.4344,37.13072 27.4792,35.17712 27.4792,32.76752 C27.4792,30.35632 29.4344,28.40112 31.844,28.40112" id="Fill-7" fill="#F26C21"></path>
                    <path d="M0.73776,44.50896 L3.38096,44.50896 L3.38096,28.64816 L0.73776,28.64816 C0.30736,28.64816 0.00016,28.95376 0.00016,29.38576 L0.00016,43.83216 C0.00016,44.20176 0.30736,44.50896 0.73776,44.50896" id="Fill-9" fill="#F26C21"></path>
                    <path d="M43.34016,44.50896 L45.98336,44.50896 C46.41376,44.50896 46.72096,44.20176 46.72096,43.76976 L46.72096,29.38576 C46.72096,28.95376 46.41376,28.64816 45.98336,28.64816 L43.34016,28.64816 L43.34016,44.50896 Z" id="Fill-11" fill="#F26C21"></path>
                    <mask id="mask-2" fill="white">
                        <use xlink:href="#path-1"></use>
                    </mask>
                    <g id="Clip-14"></g>
                    <polygon id="Fill-13" fill="#BFBEBE" mask="url(#mask-2)" points="3.3808 41.55712 43.3392 41.55712 43.3392 40.81952 3.3808 40.81952"></polygon>
                    <polygon id="Fill-15" fill="#F26C21" mask="url(#mask-2)" points="25.8816 -0.00032 19.672 9.22208 23.9152 9.22208"></polygon>
                    <polygon id="Fill-16" fill="#F26C21" mask="url(#mask-2)" points="24.28304 7.56208 22.31664 16.78288 28.58544 7.56208"></polygon>
                    <polygon id="Fill-17" fill="#F26C21" mask="url(#mask-2)" points="37.68464 5.90112 30.18544 12.60192 33.87344 13.52512"></polygon>
                    <polygon id="Fill-18" fill="#F26C21" mask="url(#mask-2)" points="30.79952 19.79488 38.36112 13.09568 34.61072 12.17088"></polygon>
                    <polygon id="Fill-19" fill="#F26C21" mask="url(#mask-2)" points="8.97536 5.90112 16.53696 12.60192 12.78656 13.52512"></polygon>
                    <polygon id="Fill-20" fill="#F26C21" mask="url(#mask-2)" points="15.92224 19.79488 8.36064 13.09568 12.11104 12.17088"></polygon>
                    <path d="M18.93472,52.684 L18.93472,44.8152 L15.36832,44.8152 L15.36832,53.116 C16.29152,52.9304 17.52032,52.8072 18.93472,52.684" id="Fill-21" fill="#BFBEBE" mask="url(#mask-2)"></path>
                    <path d="M31.29088,53.17616 L31.29088,44.81456 L27.72448,44.81456 L27.72448,52.68336 C29.20128,52.80816 30.43008,52.93136 31.29088,53.17616" id="Fill-22" fill="#BFBEBE" mask="url(#mask-2)"></path>
                    <path d="M23.05344,52.49968 C23.72864,52.49968 24.46784,52.49968 25.08224,52.56208 L25.08224,44.81488 L21.51744,44.81488 L21.51744,52.49968 L23.05344,52.49968 Z" id="Fill-23" fill="#BFBEBE" mask="url(#mask-2)"></path>
                </g>
            </g>
        </g>
    </g>
</svg>