<?xml version="1.0" encoding="UTF-8"?>
<svg width="40px" height="65px" viewBox="0 0 40 65" version="1.1" xmlns="http://www.w3.org/2000/svg" xmlns:xlink="http://www.w3.org/1999/xlink">
    <!-- Generator: Sketch 52.6 (67491) - http://www.bohemiancoding.com/sketch -->
    <title>Group 9</title>
    <desc>Created with Sketch.</desc>
    <defs>
        <polygon id="path-1" points="0 0.689289755 39.5443478 0.689289755 39.5443478 48.6947826 0 48.6947826"></polygon>
        <polygon id="path-3" points="0.587826087 0.867826087 25.0434783 0.867826087 25.0434783 28.8090435 0.587826087 28.8090435"></polygon>
    </defs>
    <g id="Page-1" stroke="none" stroke-width="1" fill="none" fill-rule="evenodd">
        <g id="Camps_Python_Jan30" transform="translate(-1008.000000, -4790.000000)">
            <g id="Group-22" transform="translate(0.000000, 4748.000000)">
                <g id="Group-9" transform="translate(1008.000000, 41.000000)">
                    <g id="Group-3" transform="translate(0.000000, 16.523826)">
                        <mask id="mask-2" fill="white">
                            <use xlink:href="#path-1"></use>
                        </mask>
                        <g id="Clip-2"></g>
                        <path d="M28.2537391,48.6947826 L28.2015652,36.8843478 C28.2015652,35.0113043 29.1389565,33.2947826 30.6989565,32.2026087 C36.0589565,28.6113043 39.545913,22.5747826 39.545913,15.7069565 C39.545913,9.82695652 36.9946087,4.52086957 32.8850435,0.877391304 C32.5215652,0.564347826 31.9998261,0.825217391 31.9998261,1.29304348 L31.9998261,14.5104348 C31.9998261,15.0304348 31.7406957,15.4982609 31.2711304,15.7591304 L20.4485217,22.0026087 C20.0328696,22.2634783 19.4606957,22.2634783 19.0450435,22.0026087 L8.27286957,16.5904348 C7.80504348,16.3313043 7.54417391,14.9782609 7.54417391,14.5104348 L7.54417391,1.24086957 C7.54417391,0.773043478 6.972,0.513913043 6.65895652,0.825217391 C2.5493913,4.46695652 -0.000173913043,9.77478261 -0.000173913043,15.6547826 C-0.000173913043,22.0547826 3.01721739,27.673913 7.64852174,31.3173913 C8.01373913,31.6286957 8.37721739,31.8895652 8.7946087,32.2026087 C10.3024348,33.2408696 11.2398261,34.9591304 11.292,36.8321739 L11.3424348,48.6947826" id="Fill-1" fill="#292A68" mask="url(#mask-2)"></path>
                    </g>
                    <g id="Group-6" transform="translate(6.956522, 0.871652)">
                        <mask id="mask-4" fill="white">
                            <use xlink:href="#path-3"></use>
                        </mask>
                        <g id="Clip-5"></g>
                        <path d="M12.92,21.4733913 C9.22608696,21.4733913 6.25913043,18.456 6.25913043,14.8125217 C6.25913043,11.1186087 9.22608696,8.15165217 12.92,8.15165217 C16.6156522,8.15165217 19.5808696,11.1186087 19.5808696,14.8125217 C19.5808696,18.5064348 16.6156522,21.4733913 12.92,21.4733913 M24.4713043,7.42295652 L13.3895652,1.02295652 C13.0243478,0.816 12.6069565,0.816 12.2434783,1.02295652 L1.16,7.42295652 C0.796521739,7.63165217 0.587826087,7.99686957 0.587826087,8.41252174 L0.587826087,21.2646957 C0.587826087,21.6803478 0.796521739,22.0455652 1.16,22.2525217 L12.2434783,28.6525217 C12.6069565,28.8612174 13.0243478,28.8612174 13.3895652,28.6525217 L24.4713043,22.2525217 C24.8365217,22.0455652 25.0434783,21.6803478 25.0434783,21.2646957 L25.0434783,8.41252174 C25.0434783,7.94469565 24.8365217,7.63165217 24.4713043,7.42295652" id="Fill-4" fill="#F26C21" mask="url(#mask-4)"></path>
                    </g>
                    <path d="M14.9333913,65.2186087 L14.9333913,54.916 C14.9333913,53.5125217 16.0777391,52.3142609 17.4829565,52.3142609 L22.009913,52.3142609 C23.4151304,52.3142609 24.5594783,53.4586087 24.5594783,54.916 L24.5594783,65.2186087" id="Fill-7" fill="#BFBEBE"></path>
                </g>
            </g>
        </g>
    </g>
</svg>