<?xml version="1.0" encoding="UTF-8"?>
<svg width="48px" height="49px" viewBox="0 0 48 49" version="1.1" xmlns="http://www.w3.org/2000/svg" xmlns:xlink="http://www.w3.org/1999/xlink">
    <!-- Generator: Sketch 52.6 (67491) - http://www.bohemiancoding.com/sketch -->
    <title>Group 7</title>
    <desc>Created with Sketch.</desc>
    <defs>
        <polygon id="path-1" points="0 0.295448276 35.4129507 0.295448276 35.4129507 35.9514398 0 35.9514398"></polygon>
        <polygon id="path-3" points="0.635154151 0.758112107 36.0562759 0.758112107 36.0562759 36.4137931 0.635154151 36.4137931"></polygon>
    </defs>
    <g id="Page-1" stroke="none" stroke-width="1" fill="none" fill-rule="evenodd">
        <g id="Camps_Python_Jan30" transform="translate(-406.000000, -4798.000000)">
            <g id="Group-22" transform="translate(0.000000, 4748.000000)">
                <g id="Group-7" transform="translate(406.000000, 49.000000)">
                    <g id="Group-3" transform="translate(0.000000, 1.360055)">
                        <mask id="mask-2" fill="white">
                            <use xlink:href="#path-1"></use>
                        </mask>
                        <g id="Clip-2"></g>
                        <path d="M17.1985655,3.99806897 C18.3290483,3.99806897 19.2691862,4.93986207 19.2691862,6.07034483 C19.2691862,7.20082759 18.3290483,8.14096552 17.1985655,8.14096552 C16.0680828,8.14096552 15.1279448,7.20082759 15.1279448,6.07034483 C15.1279448,4.93986207 16.1309793,3.99806897 17.1985655,3.99806897 M23.663669,0.295448276 C11.5494621,0.295448276 12.3025655,5.56717241 12.3025655,5.56717241 L12.3025655,11.0292414 L23.8523586,11.0292414 L23.8523586,12.6595862 L7.72104828,12.6595862 C7.72104828,12.6595862 -0.000331034483,11.7823448 -0.000331034483,24.0852414 C-0.000331034483,36.3864828 6.77925517,35.9495172 6.77925517,35.9495172 L10.7963586,35.9495172 L10.7963586,30.2375172 C10.7963586,30.2375172 10.607669,23.457931 17.4501517,23.457931 L28.9370483,23.457931 C28.9370483,23.457931 35.4021517,23.582069 35.4021517,17.1798621 L35.4021517,6.63475862 C35.4021517,6.63475862 36.2181517,0.295448276 23.663669,0.295448276" id="Fill-1" fill="#292A68" mask="url(#mask-2)"></path>
                    </g>
                    <g id="Group-6" transform="translate(11.586207, 12.946262)">
                        <mask id="mask-4" fill="white">
                            <use xlink:href="#path-3"></use>
                        </mask>
                        <g id="Clip-5"></g>
                        <path d="M18.6686897,32.7098483 C17.5382069,32.7098483 16.598069,31.7697103 16.598069,30.6392276 C16.598069,29.5087448 17.5382069,28.5669517 18.6686897,28.5669517 C19.7991724,28.5669517 20.7393103,29.5087448 20.7393103,30.6392276 C20.8651034,31.8326069 19.9233103,32.7098483 18.6686897,32.7098483 M12.3922759,36.4141241 C24.5064828,36.4141241 23.7533793,31.1424 23.7533793,31.1424 L23.7533793,25.680331 L12.2035862,25.680331 L12.2035862,24.048331 L28.3348966,24.048331 C28.3348966,24.048331 36.0562759,24.9272276 36.0562759,12.624331 C36.0562759,0.321434483 29.2766897,0.760055172 29.2766897,0.760055172 L25.2595862,0.760055172 L25.2595862,6.47205517 C25.2595862,6.47205517 25.4482759,13.2516414 18.6057931,13.2516414 L7.11889655,13.2516414 C7.11889655,13.2516414 0.653793103,13.1258483 0.653793103,19.5280552 L0.653793103,30.0731586 C0.653793103,30.0731586 -0.350896552,36.4141241 12.3922759,36.4141241" id="Fill-4" fill="#F26C21" mask="url(#mask-4)"></path>
                    </g>
                </g>
            </g>
        </g>
    </g>
</svg>