<?xml version="1.0" encoding="UTF-8"?>
<svg width="47px" height="41px" viewBox="0 0 47 41" version="1.1" xmlns="http://www.w3.org/2000/svg" xmlns:xlink="http://www.w3.org/1999/xlink">
    <!-- Generator: Sketch 52.6 (67491) - http://www.bohemiancoding.com/sketch -->
    <title>Group 15</title>
    <desc>Created with Sketch.</desc>
    <defs>
        <polygon id="path-1" points="0 0.941647059 46.8306353 0.941647059 46.8306353 35.9560941 0 35.9560941"></polygon>
        <polygon id="path-3" points="0 41.4118588 46.8310588 41.4118588 46.8310588 1.41232941 0 1.41232941"></polygon>
    </defs>
    <g id="Page-1" stroke="none" stroke-width="1" fill="none" fill-rule="evenodd">
        <g id="Camps_Python_Jan30" transform="translate(-775.000000, -3695.000000)">
            <g id="Group-27" transform="translate(235.000000, 3472.000000)">
                <g id="Group-12" transform="translate(0.000000, 137.000000)">
                    <g id="Group-11" transform="translate(500.000000, 0.000000)">
                        <g id="Group-15" transform="translate(40.000000, 85.000000)">
                            <path d="M33.4152,41.4117176 L13.4768471,41.4117176 C12.6777882,41.4117176 12.0001412,40.7354824 12.0001412,39.9350118 L12.0001412,34.7044235 L34.8919059,34.7044235 L34.8919059,39.9350118 C34.8919059,40.7354824 34.2763765,41.4117176 33.4152,41.4117176" id="Fill-1" fill="#49474E"></path>
                            <g id="Group-5" transform="translate(0.000000, 0.470682)">
                                <mask id="mask-2" fill="white">
                                    <use xlink:href="#path-1"></use>
                                </mask>
                                <g id="Clip-4"></g>
                                <path d="M40.5539294,32.3871529 L6.21557647,32.3871529 C4.98451765,32.3871529 3.9384,31.4031529 3.9384,30.1099765 L3.9384,6.72550588 C3.9384,5.49444706 4.9224,4.44832941 6.21557647,4.44832941 L40.5539294,4.44832941 C41.7849882,4.44832941 42.8311059,5.43374118 42.8311059,6.72550588 L42.8311059,30.1099765 C42.8918118,31.3410353 41.7849882,32.3871529 40.5539294,32.3871529 M-0.000423529412,3.21727059 L-0.000423529412,33.6803294 C-0.000423529412,34.9099765 0.984988235,35.9560941 2.27675294,35.9560941 L44.5534588,35.9560941 C45.7845176,35.9560941 46.8306353,34.9720941 46.8306353,33.6803294 L46.8306353,3.21727059 C46.8306353,1.98762353 45.8466353,0.941505882 44.5534588,0.941505882 L2.27675294,0.941505882 C1.04569412,0.941505882 -0.000423529412,1.92550588 -0.000423529412,3.21727059" id="Fill-3" fill="#2F2E32" mask="url(#mask-2)"></path>
                            </g>
                            <mask id="mask-4" fill="white">
                                <use xlink:href="#path-3"></use>
                            </mask>
                            <g id="Clip-7"></g>
                            <polygon id="Fill-6" fill="#FEFEFE" mask="url(#mask-4)" points="3.56894118 32.9808 43.3228235 32.9808 43.3228235 4.73421176 3.56894118 4.73421176"></polygon>
                            <polygon id="Fill-8" fill="#292A68" mask="url(#mask-4)" points="6.58447059 12.6725647 22.7689412 12.6725647 22.7689412 9.59632941 6.58447059 9.59632941"></polygon>
                            <polygon id="Fill-9" fill="#F26C21" mask="url(#mask-4)" points="25.1689412 12.6118588 35.9378824 12.6118588 35.9378824 9.59632941 25.1689412 9.59632941"></polygon>
                            <polygon id="Fill-10" fill="#2F2E32" mask="url(#mask-4)" points="11.3844706 19.3191529 22.1534118 19.3191529 22.1534118 16.3036235 11.3844706 16.3036235"></polygon>
                            <polygon id="Fill-11" fill="#2F2E32" mask="url(#mask-4)" points="24.7383529 19.3191529 31.1378824 19.3191529 31.1378824 16.3036235 24.7383529 16.3036235"></polygon>
                            <polygon id="Fill-12" fill="#F26C21" mask="url(#mask-4)" points="6.58447059 26.0885647 12.984 26.0885647 12.984 23.0730353 6.58447059 23.0730353"></polygon>
                            <polygon id="Fill-13" fill="#2F2E32" mask="url(#mask-4)" points="15.3854118 26.0885647 21.7849412 26.0885647 21.7849412 23.0730353 15.3854118 23.0730353"></polygon>
                            <polygon id="Fill-14" fill="#2F2E32" mask="url(#mask-4)" points="33.5378824 19.3191529 39.9374118 19.3191529 39.9374118 16.3036235 33.5378824 16.3036235"></polygon>
                        </g>
                    </g>
                </g>
            </g>
        </g>
    </g>
</svg>